<svg viewBox="0 0 317 317" xmlns="http://www.w3.org/2000/svg" fill-rule="evenodd" clip-rule="evenodd" stroke-linejoin="round" stroke-miterlimit="2">
  <circle cx="158.211" cy="158.211" r="158.211" fill="#122a40"/>
  <path d="M143.397 103.01c0-4.795-3.893-8.687-8.688-8.687h-17.374c-4.795 0-8.687 3.892-8.687 8.687v112.08c0 4.794 3.892 8.687 8.687 8.687h17.374c4.795 0 8.688-3.893 8.688-8.687V103.01zM207.775 103.01c0-4.795-3.892-8.687-8.687-8.687h-17.374c-4.795 0-8.688 3.892-8.688 8.687v112.08c0 4.794 3.893 8.687 8.688 8.687h17.374c4.795 0 8.687-3.893 8.687-8.687V103.01z" fill="#e6e6e6"/>
</svg>
