<?xml version="1.0" encoding="UTF-8" standalone="no"?><!DOCTYPE svg PUBLIC "-//W3C//DTD SVG 1.1//EN" "http://www.w3.org/Graphics/SVG/1.1/DTD/svg11.dtd"><svg width="100%" height="100%" viewBox="0 0 317 317" version="1.1" xmlns="http://www.w3.org/2000/svg" xmlns:xlink="http://www.w3.org/1999/xlink" xml:space="preserve" xmlns:serif="http://www.serif.com/" style="fill-rule:evenodd;clip-rule:evenodd;stroke-linejoin:round;stroke-miterlimit:2;"><g><circle cx="158.211" cy="158.211" r="158.211" style="fill:#122a40;"/><path d="M129.78,79.084c-1.605,-1.171 -3.731,-1.341 -5.502,-0.44c-1.771,0.9 -2.886,2.718 -2.886,4.705c0,30.41 0,119.073 0,149.725c0,2.001 1.131,3.829 2.921,4.723c1.79,0.893 3.931,0.698 5.529,-0.504c22.302,-16.767 82.32,-61.89 101.1,-76.01c1.337,-1.005 2.118,-2.585 2.106,-4.258c-0.012,-1.672 -0.817,-3.24 -2.168,-4.226c-18.868,-13.757 -78.872,-57.508 -101.1,-73.715Z" style="fill:#ccc;"/></g></svg>