<?xml version="1.0" encoding="UTF-8" standalone="no"?><!DOCTYPE svg PUBLIC "-//W3C//DTD SVG 1.1//EN" "http://www.w3.org/Graphics/SVG/1.1/DTD/svg11.dtd"><svg width="100%" height="100%" viewBox="0 0 317 317" version="1.1" xmlns="http://www.w3.org/2000/svg" xmlns:xlink="http://www.w3.org/1999/xlink" xml:space="preserve" xmlns:serif="http://www.serif.com/" style="fill-rule:evenodd;clip-rule:evenodd;stroke-linejoin:round;stroke-miterlimit:2;"><g><g><circle cx="158.211" cy="158.211" r="158.211" style="fill:#122a40;"/></g><path d="M143.397,103.01c0,-4.795 -3.893,-8.687 -8.688,-8.687l-17.374,0c-4.795,0 -8.687,3.892 -8.687,8.687l0,112.08c0,4.794 3.892,8.687 8.687,8.687l17.374,0c4.795,0 8.688,-3.893 8.688,-8.687l0,-112.08Z" style="fill:#e6e6e6;"/><path d="M207.775,103.01c0,-4.795 -3.892,-8.687 -8.687,-8.687l-17.374,0c-4.795,0 -8.688,3.892 -8.688,8.687l0,112.08c0,4.794 3.893,8.687 8.688,8.687l17.374,0c4.795,0 8.687,-3.893 8.687,-8.687l0,-112.08Z" style="fill:#e6e6e6;"/></g></svg>